<?xml version="1.0" encoding="UTF-8"?>
<svg version="1.1" xmlns="http://www.w3.org/2000/svg" width="722" height="367">
<path d="M0 0 C238.26 0 476.52 0 722 0 C722 121.11 722 242.22 722 367 C483.74 367 245.48 367 0 367 C0 245.89 0 124.78 0 0 Z " fill="#FEFEFD" transform="translate(0,0)"/>
<path d="M0 0 C5.16491033 0.59595119 7.72374217 2.60952736 11.01953125 6.421875 C15.61223369 12.44570467 19.43823432 18.90208015 23.25 25.4375 C23.74330811 26.28320557 24.23661621 27.12891113 24.74487305 28.00024414 C25.42803589 29.19315063 25.42803589 29.19315063 26.125 30.41015625 C26.53492188 31.1256665 26.94484375 31.84117676 27.3671875 32.57836914 C28.25 34.375 28.25 34.375 28.25 36.375 C29.178125 36.643125 30.10625 36.91125 31.0625 37.1875 C34.12397326 38.32804886 35.29609482 38.88028178 37.25 41.375 C38.0605142 45.65023974 36.83468762 49.35808761 34.70703125 53.05859375 C32.66212653 55.93615428 30.50757698 58.66130815 28.25 61.375 C27.54230469 62.24640625 26.83460938 63.1178125 26.10546875 64.015625 C16.34024608 75.48756226 3.91116251 81.97473888 -9.07421875 89.19140625 C-13.71896781 91.77815051 -18.28265762 94.46827163 -22.8125 97.25 C-30.35552036 101.85671989 -38.34047861 106.5718262 -46.75 109.375 C-46.0701001 109.45540527 -45.3902002 109.53581055 -44.68969727 109.61865234 C-41.56338598 109.99107892 -38.43795937 110.37049297 -35.3125 110.75 C-34.24322266 110.87632812 -33.17394531 111.00265625 -32.07226562 111.1328125 C-24.81488186 112.02056587 -17.70265111 113.05744963 -10.75 115.375 C-11.02734375 117.27734375 -11.02734375 117.27734375 -11.75 119.375 C-14.81494084 120.7192723 -17.51956146 121.58041633 -20.75 122.375 C-21.7503125 122.62121094 -22.750625 122.86742187 -23.78125 123.12109375 C-28.08685149 124.04032062 -32.39376898 124.74337431 -36.75 125.375 C-37.70438965 125.51470215 -38.6587793 125.6544043 -39.64208984 125.79833984 C-59.45969609 128.51623563 -79.27882329 128.66990304 -99.25 128.6875 C-101.16601013 128.69274185 -101.16601013 128.69274185 -103.12072754 128.6980896 C-116.15869634 128.7178479 -129.15157463 128.53380774 -142.15625 127.54296875 C-143.61496521 127.4396801 -143.61496521 127.4396801 -145.10314941 127.33430481 C-150.58174873 126.85658996 -154.82860591 125.84966866 -159.75 123.375 C-159.75 120.375 -159.75 120.375 -157.75 118.375 C-158.575 117.6325 -159.4 116.89 -160.25 116.125 C-163.57603468 112.15460533 -163.40381833 108.15713026 -163.15625 103.15625 C-162.597476 99.33079722 -161.85724394 97.72437957 -158.75 95.375 C-154.77725627 93.48030684 -150.68722878 92.54166655 -146.3671875 91.7734375 C-138.00018198 90.27352074 -132.98381898 88.11324341 -126.75 82.375 C-124.38822424 80.23012201 -123.39943336 79.39369581 -120.171875 79.30078125 C-119.29015625 79.42839844 -118.4084375 79.55601562 -117.5 79.6875 C-116.60796875 79.80738281 -115.7159375 79.92726563 -114.796875 80.05078125 C-114.12140625 80.15777344 -113.4459375 80.26476562 -112.75 80.375 C-115.06 79.385 -117.37 78.395 -119.75 77.375 C-119.75 74.405 -119.75 71.435 -119.75 68.375 C-117.11 68.375 -114.47 68.375 -111.75 68.375 C-111.09 66.065 -110.43 63.755 -109.75 61.375 C-108.780625 61.395625 -107.81125 61.41625 -106.8125 61.4375 C-103.87534105 61.73118499 -103.87534105 61.73118499 -102.75 60.375 C-102.38239269 58.04682036 -102.04758419 55.7131615 -101.75 53.375 C-99.25935112 52.68792445 -97.37113708 52.375 -94.75 52.375 C-94.42 50.065 -94.09 47.755 -93.75 45.375 C-92.1 45.045 -90.45 44.715 -88.75 44.375 C-89.08 41.075 -89.41 37.775 -89.75 34.375 C-85.75 33.375 -85.75 33.375 -83.75 34.375 C-83.6571875 32.456875 -83.6571875 32.456875 -83.5625 30.5 C-82.56125849 21.89473516 -78.5595341 14.99585619 -71.80859375 9.59765625 C-68.6031699 7.69386561 -66.34899629 7.5987459 -62.75 8.375 C-59.64033817 11.53801387 -58.95794901 14.86095712 -58.0625 19.125 C-57.81113281 20.29546875 -57.55976563 21.4659375 -57.30078125 22.671875 C-57.11902344 23.56390625 -56.93726563 24.4559375 -56.75 25.375 C-54.5631784 25.85725331 -52.37550745 26.33565583 -50.1875 26.8125 C-48.96933594 27.07933594 -47.75117188 27.34617187 -46.49609375 27.62109375 C-34.02924587 30.13006313 -21.76191158 30.67475134 -10.75 23.375 C-5.39266456 17.60556184 -5.49860251 13.23959673 -5.12890625 5.5625 C-4.64898577 1.52523083 -4.06729557 0.55463121 0 0 Z " fill="#D2D3D1" transform="translate(382.75,92.625)"/>
<path d="M0 0 C5.12975658 0.59189499 7.68419608 2.59054778 10.984375 6.3515625 C15.79185611 12.60923419 19.80257999 19.40224703 23.8125 26.1875 C24.36180176 27.09491943 24.91110352 28.00233887 25.47705078 28.93725586 C29.2510435 35.47445815 29.2510435 35.47445815 29.24609375 39.74609375 C22.27738667 58.13801479 3.47370643 69.3363716 -12.4375 79.125 C-13.72974487 79.93203369 -13.72974487 79.93203369 -15.0480957 80.75537109 C-15.86109131 81.24344238 -16.67408691 81.73151367 -17.51171875 82.234375 C-18.23319092 82.67233398 -18.95466309 83.11029297 -19.69799805 83.56152344 C-22.2337608 84.56677763 -23.25502932 84.42584675 -25.75 83.375 C-27.31469727 82.11914062 -27.31469727 82.11914062 -28.81640625 80.53125 C-29.3781958 79.94907715 -29.93998535 79.3669043 -30.51879883 78.76708984 C-31.11072021 78.1427002 -31.7026416 77.51831055 -32.3125 76.875 C-41.49213194 67.4735576 -51.40233289 59.72669443 -62.26489258 52.35888672 C-62.97540771 51.87049316 -63.68592285 51.38209961 -64.41796875 50.87890625 C-65.06016357 50.44392822 -65.7023584 50.0089502 -66.36401367 49.56079102 C-66.82138916 49.16947998 -67.27876465 48.77816895 -67.75 48.375 C-67.75 47.715 -67.75 47.055 -67.75 46.375 C-66.1 46.375 -64.45 46.375 -62.75 46.375 C-62.75 45.055 -62.75 43.735 -62.75 42.375 C-63.74 42.375 -64.73 42.375 -65.75 42.375 C-65.44255859 41.37919922 -65.44255859 41.37919922 -65.12890625 40.36328125 C-64.85949219 39.48027344 -64.59007812 38.59726563 -64.3125 37.6875 C-64.04566406 36.81738281 -63.77882813 35.94726562 -63.50390625 35.05078125 C-62.78655471 32.50474079 -62.232459 29.9746577 -61.75 27.375 C-62.83539063 27.9525 -63.92078125 28.53 -65.0390625 29.125 C-66.48404309 29.87563927 -67.92937431 30.62560385 -69.375 31.375 C-70.08785156 31.7565625 -70.80070312 32.138125 -71.53515625 32.53125 C-75.7893071 34.71686878 -78.8424454 35.87039983 -83.75 35.375 C-84.3973475 27.93050379 -82.29681993 21.73217173 -77.7734375 15.76953125 C-71.44214162 8.52883106 -71.44214162 8.52883106 -66.3125 8.0625 C-62.75 8.375 -62.75 8.375 -61.1328125 9.97265625 C-59.40841086 12.96843875 -58.77197323 15.74655602 -58.0625 19.125 C-57.81113281 20.29546875 -57.55976563 21.4659375 -57.30078125 22.671875 C-57.11902344 23.56390625 -56.93726563 24.4559375 -56.75 25.375 C-54.5631784 25.85725331 -52.37550745 26.33565583 -50.1875 26.8125 C-48.96933594 27.07933594 -47.75117188 27.34617187 -46.49609375 27.62109375 C-34.02924587 30.13006313 -21.76191158 30.67475134 -10.75 23.375 C-5.39266456 17.60556184 -5.49860251 13.23959673 -5.12890625 5.5625 C-4.64898577 1.52523083 -4.06729557 0.55463121 0 0 Z " fill="#F47B08" transform="translate(382.75,92.625)"/>
<path d="M0 0 C10.30943879 5.18199304 30.2404263 15.7212789 34 27 C25.35136647 31.54174051 16.62472609 35.71741608 7.5625 39.375 C6.74749023 39.70822266 5.93248047 40.04144531 5.09277344 40.38476562 C-8.69563111 45.84629715 -22.42787438 46.16878488 -37.125 46.125 C-38.43082031 46.12886719 -39.73664063 46.13273437 -41.08203125 46.13671875 C-64.75794152 46.11277951 -64.75794152 46.11277951 -72.96484375 39.390625 C-75.59410685 36.59432636 -76.86522926 34.67385368 -77.625 30.875 C-76.80638902 27.10938949 -75.87795499 25.5971789 -73 23 C-69.05829678 21.06813227 -64.92072044 20.16373089 -60.6171875 19.3984375 C-51.21766369 17.71342567 -45.99528174 14.75083178 -39.1640625 8.25390625 C-36.08276555 6.46853383 -33.99723613 6.99246883 -30.5 7.4375 C-18.76368462 8.53549208 -9.80088347 6.53392231 0 0 Z " fill="#F7CF2A" transform="translate(297,165)"/>
<path d="M0 0 C3.49337901 1.16445967 3.82365226 1.8428277 5.70703125 4.8671875 C6.20887939 5.66552002 6.71072754 6.46385254 7.2277832 7.28637695 C7.75073975 8.14062256 8.27369629 8.99486816 8.8125 9.875 C9.34641357 10.73891357 9.88032715 11.60282715 10.43041992 12.49291992 C11.96440098 14.98888514 13.48326883 17.49352863 15 20 C15.57427734 20.92981689 15.57427734 20.92981689 16.16015625 21.87841797 C17.0631901 23.34496265 17.93945303 24.82790833 18.8125 26.3125 C19.27269531 27.09238281 19.73289062 27.87226562 20.20703125 28.67578125 C21.27984619 31.82023884 20.84982304 33.81421018 20 37 C11.60088142 53.91822456 -5.17998313 64.20972279 -20.6875 73.75 C-21.97974487 74.55703369 -21.97974487 74.55703369 -23.2980957 75.38037109 C-24.11109131 75.86844238 -24.92408691 76.35651367 -25.76171875 76.859375 C-26.48319092 77.29733398 -27.20466309 77.73529297 -27.94799805 78.18652344 C-30.44654839 79.17702549 -31.53018015 78.97928243 -34 78 C-35.921875 76.37109375 -35.921875 76.37109375 -37.75 74.4375 C-38.36359375 73.79683594 -38.9771875 73.15617187 -39.609375 72.49609375 C-40.06828125 72.00238281 -40.5271875 71.50867188 -41 71 C-38.89783326 65.86137018 -36.86556203 63.65394293 -32 61 C-29.43680422 60.02183339 -26.87477781 59.08306794 -24.26953125 58.22265625 C-21.14822155 56.54112452 -20.32970426 55.30476986 -19 52 C-18.65194959 47.88226692 -18.93097941 43.77765573 -19.1171875 39.65625 C-19.52058151 24.86513645 -11.41621915 12.8371351 -2 2 C-1.34 1.34 -0.68 0.68 0 0 Z " fill="#F73975" transform="translate(391,98)"/>
<path d="M0 0 C6.6 0 13.2 0 20 0 C20 0.66 20 1.32 20 2 C19.01 2.495 19.01 2.495 18 3 C18 10.92 18 18.84 18 27 C21.279375 27.020625 24.55875 27.04125 27.9375 27.0625 C28.97253662 27.071604 30.00757324 27.08070801 31.07397461 27.09008789 C31.88358643 27.09258545 32.69319824 27.09508301 33.52734375 27.09765625 C34.35999756 27.10289307 35.19265137 27.10812988 36.05053711 27.11352539 C38.00516798 27.21643292 38.00516798 27.21643292 39 26 C39.25248182 22.40287663 39.18522846 18.79243401 39.1875 15.1875 C39.20586914 13.6705957 39.20586914 13.6705957 39.22460938 12.12304688 C39.22654297 11.14787109 39.22847656 10.17269531 39.23046875 9.16796875 C39.23457764 8.27360107 39.23868652 7.3792334 39.24291992 6.45776367 C39.11077138 3.62642521 39.11077138 3.62642521 37 0 C43.27 0 49.54 0 56 0 C55.34 1.32 54.68 2.64 54 4 C53.69892526 6.55615134 53.69892526 6.55615134 53.74121094 9.34765625 C53.73490662 10.41556396 53.72860229 11.48347168 53.72210693 12.58374023 C53.7261554 13.73173096 53.73020386 14.87972168 53.734375 16.0625 C53.73246155 17.24593994 53.7305481 18.42937988 53.72857666 19.64868164 C53.72721596 22.15023003 53.73090437 24.6517855 53.73925781 27.15332031 C53.74995863 30.98518719 53.73935831 34.81658522 53.7265625 38.6484375 C53.72788411 41.07812604 53.73044655 43.50781428 53.734375 45.9375 C53.73032654 47.08549072 53.72627808 48.23348145 53.72210693 49.41625977 C53.72841125 50.48416748 53.73471558 51.5520752 53.74121094 52.65234375 C53.74280212 53.59070068 53.74439331 54.52905762 53.74603271 55.49584961 C53.88760133 58.36634045 53.88760133 58.36634045 56 62 C49.73 62 43.46 62 37 62 C37.66 60.68 38.32 59.36 39 58 C39.29069912 55.11323978 39.29069912 55.11323978 39.23046875 51.95703125 C39.22853516 50.80138672 39.22660156 49.64574219 39.22460938 48.45507812 C39.21236328 47.25302734 39.20011719 46.05097656 39.1875 44.8125 C39.18685547 43.59884766 39.18621094 42.38519531 39.18554688 41.13476562 C39.68611706 35.70057775 39.68611706 35.70057775 38 31 C36.5112814 30.91330568 35.018555 30.89296506 33.52734375 30.90234375 C32.31292603 30.90609009 32.31292603 30.90609009 31.07397461 30.90991211 C30.03893799 30.91901611 29.00390137 30.92812012 27.9375 30.9375 C24.658125 30.958125 21.37875 30.97875 18 31 C18 40.57 18 50.14 18 60 C18.66 60 19.32 60 20 60 C20 60.66 20 61.32 20 62 C13.4 62 6.8 62 0 62 C0 61.34 0 60.68 0 60 C0.99 59.505 0.99 59.505 2 59 C2 40.52 2 22.04 2 3 C1.34 2.67 0.68 2.34 0 2 C0 1.34 0 0.68 0 0 Z " fill="#F37B0C" transform="translate(438,255)"/>
<path d="M0 0 C4.91610421 2.87371436 8.81995604 7.02236812 10.625 12.4375 C11.95856013 26.66776827 11.95856013 26.66776827 8 32.125 C2.61214357 37.97031594 -2.67181808 40.49842565 -10.5 40.875 C-17.84451803 40.78663013 -22.91894145 37.80015156 -28.109375 32.75 C-32.01427331 27.66046962 -32.16806802 22.09475088 -31.9140625 15.8515625 C-30.92496465 9.5872761 -28.19231203 5.79359527 -23.39453125 1.78125 C-16.38201121 -2.8171238 -7.69331076 -3.38329154 0 0 Z " fill="#F37C0E" transform="translate(176.375,277.5625)"/>
<path d="M0 0 C4.7522795 3.1075926 8.05458747 6.74193044 10.125 12.0625 C11.19828582 18.85997684 10.98739146 25.41100862 7.390625 31.4140625 C3.88113534 35.98506446 -0.16615564 38.87764551 -5.875 40.0625 C-12.94164555 40.76807905 -19.12930703 40.5913104 -24.875 36.0625 C-30.92384258 29.4985813 -32.30366094 24.2351314 -32.21484375 15.36328125 C-31.63117998 9.69436298 -29.32501062 6.20156835 -25.08984375 2.50390625 C-17.77629899 -2.97737039 -8.32919421 -4.12210121 0 0 Z " fill="#F37C0E" transform="translate(129.875,277.9375)"/>
<path d="M0 0 C2.46567236 1.46952911 4.40356413 2.80381276 6.5625 4.625 C7.12606201 5.08068359 7.68962402 5.53636719 8.27026367 6.00585938 C12.08061988 9.1235743 15.7531565 12.28932172 19 16 C19 16.66 19 17.32 19 18 C10.35136647 22.54174051 1.62472609 26.71741608 -7.4375 30.375 C-8.25250977 30.70822266 -9.06751953 31.04144531 -9.90722656 31.38476562 C-23.69563111 36.84629715 -37.42787438 37.16878488 -52.125 37.125 C-53.43082031 37.12886719 -54.73664063 37.13273437 -56.08203125 37.13671875 C-79.75794152 37.11277951 -79.75794152 37.11277951 -87.96484375 30.390625 C-90.78227444 27.3942046 -91.9208904 25.72517136 -92.375 21.5625 C-92.189375 20.2940625 -92.189375 20.2940625 -92 19 C-89 19 -89 19 -86.125 21.25 C-81.03693798 25.05526673 -75.0757279 26.43669473 -69 28 C-68.34314209 28.17950195 -67.68628418 28.35900391 -67.00952148 28.54394531 C-60.60898118 30.16016306 -54.39295042 30.36686091 -47.8125 30.375 C-46.75869141 30.39949219 -45.70488281 30.42398438 -44.61914062 30.44921875 C-38.58795477 30.47202096 -34.65198145 30.25875176 -30 26 C-28.27664901 23.9754016 -28.27664901 23.9754016 -27 21.75 C-26.50113281 20.96238281 -26.00226563 20.17476562 -25.48828125 19.36328125 C-24.75158203 18.19345703 -24.75158203 18.19345703 -24 17 C-18.24320959 8.40512805 -11.1487451 -1.03548716 0 0 Z " fill="#138F1B" transform="translate(312,174)"/>
<path d="M0 0 C-0.49658297 5.66104589 -1.54510684 9.87674471 -4 15 C-3.01 15 -2.02 15 -1 15 C-1 16.32 -1 17.64 -1 19 C-2.65 19 -4.3 19 -6 19 C-6.0825 19.515625 -6.165 20.03125 -6.25 20.5625 C-8.18611286 26.85486681 -10.52299248 29.73987648 -16 33 C-21.42199805 38.94759995 -21.42199805 38.94759995 -24 46 C-31.84322535 50.89959509 -39.99981074 55.0612483 -49.4375 53.3125 C-52.67292834 52.52896134 -54.95043916 51.52478042 -58 50 C-58 47.03 -58 44.06 -58 41 C-55.36 41 -52.72 41 -50 41 C-49.34 38.69 -48.68 36.38 -48 34 C-47.030625 34.020625 -46.06125 34.04125 -45.0625 34.0625 C-42.12534105 34.35618499 -42.12534105 34.35618499 -41 33 C-40.63239269 30.67182036 -40.29758419 28.3381615 -40 26 C-37.50935112 25.31292445 -35.62113708 25 -33 25 C-32.67 22.69 -32.34 20.38 -32 18 C-30.35 17.67 -28.7 17.34 -27 17 C-27.495 12.05 -27.495 12.05 -28 7 C-24 6 -24 6 -22 7 C-16.75428692 7.54500915 -13.80530425 6.12993419 -9.3125 3.5 C-3.29166667 0 -3.29166667 0 0 0 Z " fill="#0EA8AA" transform="translate(321,120)"/>
<path d="M0 0 C3.18494022 1.95656836 4.70850651 3.81685042 6.69140625 7.0390625 C7.32993253 11.08306228 7.14910786 13.16345943 5.25390625 16.7890625 C-0.34076644 21.70145803 -7.87005363 22.46241894 -15.0234375 23.609375 C-17.32823226 23.93462136 -17.32823226 23.93462136 -19.30859375 25.0390625 C-19.54027794 28.35986916 -19.42917293 30.71988231 -18.24609375 33.8515625 C-16.38240625 36.37105665 -16.38240625 36.37105665 -12.80859375 36.9140625 C-9.33563469 37.24245739 -9.33563469 37.24245739 -6.30859375 36.0390625 C-6.25703125 35.20761719 -6.20546875 34.37617188 -6.15234375 33.51953125 C-5.24327901 24.81110429 -5.24327901 24.81110429 -2.53515625 22.57421875 C1.0404404 21.23835458 3.8421485 21.0390625 7.69140625 21.0390625 C8.24693197 26.37210945 7.50005151 29.79095208 4.42578125 34.23828125 C-0.18859545 39.02933454 -6.49659722 40.25297377 -12.93359375 40.5390625 C-19.08119016 40.27026773 -23.56369886 38.6188969 -28.0625 34.390625 C-33.30081915 28.60954026 -34.79433811 23.51727131 -34.6171875 15.75390625 C-33.87050973 9.18503223 -30.06496546 5.43134945 -25.1875 1.30078125 C-17.95675659 -3.55479073 -7.85766488 -3.51052251 0 0 Z " fill="#F37E11" transform="translate(620.30859375,277.9609375)"/>
<path d="M0 0 C7.12942839 5.16883558 7.12942839 5.16883558 7.984375 8.9609375 C8.23277577 13.11475035 8.09759852 14.99517839 5.56640625 18.45703125 C1.48593358 21.59145803 -2.18854132 22.18253652 -7.1875 23 C-8.90090954 23.29936895 -10.61322936 23.60506408 -12.32421875 23.91796875 C-13.07791748 24.04324951 -13.83161621 24.16853027 -14.6081543 24.29760742 C-16.72379278 24.7052301 -16.72379278 24.7052301 -18.5 26.8125 C-18.12916167 30.2242126 -17.39141824 33.50151795 -16.5 36.8125 C-11.09983753 38.09555059 -11.09983753 38.09555059 -6.125 36.4375 C-4.46658083 33.75851519 -4.19745756 32.29768318 -3.75 29.25 C-3.01937589 25.17459212 -3.01937589 25.17459212 -0.70703125 23.5625 C2.49497511 22.34935369 5.06308692 21.8125 8.5 21.8125 C8.94365036 30.53762369 8.94365036 30.53762369 5.5 34.8125 C0.39958278 39.77123896 -5.00193163 40.89971708 -11.9375 41.1875 C-17.25820351 41.05630457 -21.27892539 40.13959156 -25.5 36.8125 C-31.59899882 30.19415412 -32.86069535 24.97845264 -32.78125 16.05078125 C-32.29354698 10.43542291 -30.23290792 7.49857257 -26.1875 3.5625 C-18.05460561 -1.73333821 -9.41271872 -3.19360099 0 0 Z " fill="#F37C0E" transform="translate(315.5,277.1875)"/>
<path d="M0 0 C4.95 0 9.9 0 15 0 C16.50437846 3.45648861 18.00367422 6.91502747 19.5 10.375 C19.92925781 11.35984375 20.35851562 12.3446875 20.80078125 13.359375 C21.40986328 14.77089844 21.40986328 14.77089844 22.03125 16.2109375 C22.40830078 17.08024902 22.78535156 17.94956055 23.17382812 18.84521484 C24 21 24 21 24 23 C24.66 23 25.32 23 26 23 C27.77234472 14.75245526 26.12893159 10.16645769 22 3 C21.67 2.01 21.34 1.02 21 0 C27.27 0 33.54 0 40 0 C40 0.66 40 1.32 40 2 C39.34 2.33 38.68 2.66 38 3 C38.70059913 7.56719683 40.31353781 11.57097714 42.0625 15.8125 C43.031875 18.184375 44.00125 20.55625 45 23 C48.3 15.41 51.6 7.82 55 0 C56.65 0 58.3 0 60 0 C59.72599365 0.5261792 59.4519873 1.0523584 59.16967773 1.59448242 C57.75035209 4.51341701 56.52071788 7.48679007 55.28515625 10.48828125 C55.02874863 11.10970505 54.772341 11.73112885 54.50816345 12.37138367 C53.69153984 14.35118118 52.87692094 16.33179549 52.0625 18.3125 C51.25130116 20.28234707 50.43966924 22.25201426 49.62754822 24.22148132 C48.88767348 26.01621063 48.14900246 27.81143602 47.41040039 29.60668945 C45.96563551 33.08267822 44.48897676 36.54276919 43 40 C41.35 40 39.7 40 38 40 C35.33333333 34 32.66666667 28 30 22 C27.69 27.94 25.38 33.88 23 40 C21.02 40 19.04 40 17 40 C16.65219482 39.09233887 16.30438965 38.18467773 15.94604492 37.24951172 C14.6463598 33.86015183 13.34268487 30.47233808 12.0378418 27.08496094 C11.47524008 25.62281027 10.91369975 24.16025073 10.35327148 22.69726562 C9.54434085 20.58613642 8.73151747 18.47654069 7.91796875 16.3671875 C7.67096725 15.72006805 7.42396576 15.07294861 7.16947937 14.40621948 C4.88483608 7.15140619 4.88483608 7.15140619 0 2 C0 1.34 0 0.68 0 0 Z " fill="#F37B0C" transform="translate(219,277)"/>
<path d="M0 0 C0.68642578 -0.020625 1.37285156 -0.04125 2.08007812 -0.0625 C7.74145453 -0.10534864 12.4241155 0.93558644 16.89453125 4.6796875 C20.73979028 9.70705797 22.39891709 13.67249928 22.6015625 19.98828125 C22.65957031 21.58833008 22.65957031 21.58833008 22.71875 23.22070312 C22.7496875 24.32349609 22.780625 25.42628906 22.8125 26.5625 C22.87050781 28.24569336 22.87050781 28.24569336 22.9296875 29.96289062 C23.02372011 32.72509852 23.10937341 35.487304 23.1875 38.25 C24.1775 38.745 24.1775 38.745 25.1875 39.25 C25.1875 39.91 25.1875 40.57 25.1875 41.25 C20.2375 41.25 15.2875 41.25 10.1875 41.25 C9.6925 38.775 9.6925 38.775 9.1875 36.25 C8.259375 37.054375 7.33125 37.85875 6.375 38.6875 C2.55857023 41.99507247 -0.74949268 42.54312671 -5.81640625 42.46875 C-9.62361384 42.05152177 -11.8649124 40.0995613 -14.625 37.625 C-16.44321106 33.98857787 -16.8246188 30.19859505 -15.8125 26.25 C-11.3908073 20.39934564 -5.08834419 18.75647525 1.58984375 16.46484375 C3.99394082 15.55165959 6.07868246 14.72478641 8.1875 13.25 C9.43038412 9.62400627 9.43038412 9.62400627 9.1875 6.25 C6.84375462 4.08654273 5.44165543 3.28785294 2.25 2.8125 C-1.69067498 3.37545357 -3.14817276 4.2896364 -5.8125 7.25 C-6.79842934 9.92682369 -7.2943529 12.42374307 -7.8125 15.25 C-9.1325 15.25 -10.4525 15.25 -11.8125 15.25 C-11.8125 10.63 -11.8125 6.01 -11.8125 1.25 C-7.78392338 0.24285585 -4.11430239 0.03039189 0 0 Z " fill="#F37D0F" transform="translate(344.8125,275.75)"/>
<path d="M0 0 C4.45850103 4.57583001 6.2314052 8.4414397 6.30859375 14.7890625 C6.33373047 15.89507812 6.35886719 17.00109375 6.38476562 18.140625 C6.42003924 20.47129674 6.45126264 22.80203317 6.47851562 25.1328125 C6.50494141 26.23625 6.53136719 27.3396875 6.55859375 28.4765625 C6.57204834 29.48799316 6.58550293 30.49942383 6.59936523 31.54150391 C6.79767944 32.75845947 6.79767944 32.75845947 7 34 C7.99 34.66 8.98 35.32 10 36 C10 36.66 10 37.32 10 38 C5.05 38 0.1 38 -5 38 C-5.495 35.525 -5.495 35.525 -6 33 C-6.46148438 33.433125 -6.92296875 33.86625 -7.3984375 34.3125 C-12.08167448 38.31083671 -15.46239728 39.86729526 -21.6640625 39.45703125 C-25.21480872 38.76232003 -27.36032795 37.44169665 -30 35 C-32.10276343 31.36795408 -32.51904972 28.1523978 -32 24 C-29.26810495 19.85085424 -26.86933046 18.15478995 -22.25 16.4375 C-14.07780377 13.6521582 -14.07780377 13.6521582 -7 9 C-6.66661404 5.54187831 -6.66661404 5.54187831 -7 2 C-10.77825749 -0.51883833 -12.57081179 -0.15015164 -16.91015625 0.46875 C-19.13310803 0.87288907 -19.13310803 0.87288907 -20.9375 2.625 C-22.30396369 5.67944824 -23.18934982 8.7573993 -24 12 C-25.32 12 -26.64 12 -28 12 C-28 7.38 -28 2.76 -28 -2 C-19.19620759 -4.2009481 -8.05225633 -4.49068141 0 0 Z " fill="#F37C0D" transform="translate(531,279)"/>
<path d="M0 0 C0.99 0.66 1.98 1.32 3 2 C2.54109375 2.3403125 2.0821875 2.680625 1.609375 3.03125 C-5.2816222 8.47455871 -7.90859901 14.63439604 -10 23 C-10.40089844 22.59007813 -10.80179687 22.18015625 -11.21484375 21.7578125 C-15.69733102 17.50910574 -19.76600666 15.38026207 -26 15 C-28.18285174 15.1789252 -28.18285174 15.1789252 -30 16 C-31.13297177 19.3989153 -31.17913908 22.23461705 -31.3125 25.8125 C-31.97810481 35.17919957 -31.97810481 35.17919957 -36 39 C-42.72826386 42.73522063 -48.76739692 44.19379342 -56.4375 44.1875 C-57.23849121 44.18814453 -58.03948242 44.18878906 -58.86474609 44.18945312 C-65.3841781 44.13195563 -71.62446495 43.4001175 -78 42 C-76.74231165 36.91142184 -75.20834945 34.89694671 -70.875 32 C-69.89660156 31.3296875 -68.91820312 30.659375 -67.91015625 29.96875 C-66.94980469 29.3190625 -65.98945313 28.669375 -65 28 C-63.42976819 26.84376066 -61.86614381 25.67843466 -60.3125 24.5 C-59.34763672 23.77296875 -59.34763672 23.77296875 -58.36328125 23.03125 C-57.68845703 22.52078125 -57.68845703 22.52078125 -57 22 C-56.67 24.64 -56.34 27.28 -56 30 C-53.57253957 28.55247749 -51.14856551 27.09985487 -48.73046875 25.63671875 C-47.10000396 24.6593729 -45.45972533 23.69771488 -43.80078125 22.76953125 C-40.06165775 20.61714778 -37.37908327 18.46328275 -34.625 15.125 C-26.33334721 5.18252041 -13.26180061 -2.12782622 0 0 Z " fill="#F47F0C" transform="translate(407,76)"/>
<path d="M0 0 C15.51 0 31.02 0 47 0 C47 4.62 47 9.24 47 14 C45.68 14 44.36 14 43 14 C42.731875 12.906875 42.46375 11.81375 42.1875 10.6875 C40.92891323 6.66943394 40.92891323 6.66943394 38 4 C34.11436275 2.70478758 30.42199731 2.85496536 26.375 2.875 C25.19164062 2.86919922 25.19164062 2.86919922 23.984375 2.86328125 C20.18554666 2.50019405 20.18554666 2.50019405 17 4 C16.9008343 5.62257544 16.86920223 7.24939831 16.8671875 8.875 C16.86589844 9.85984375 16.86460938 10.8446875 16.86328125 11.859375 C16.86908203 13.41398437 16.86908203 13.41398437 16.875 15 C16.87113281 16.03640625 16.86726563 17.0728125 16.86328125 18.140625 C16.86521484 19.61789062 16.86521484 19.61789062 16.8671875 21.125 C16.86831543 22.03507812 16.86944336 22.94515625 16.87060547 23.8828125 C16.76439991 25.9852848 16.76439991 25.9852848 18 27 C19.78940972 27.09908783 21.58285508 27.12970379 23.375 27.125 C24.35210937 27.12757813 25.32921875 27.13015625 26.3359375 27.1328125 C29.10464416 27.11434035 29.10464416 27.11434035 32 26 C33.21869929 23.49552484 33.21869929 23.49552484 34 21 C34.66 21 35.32 21 36 21 C36 26.28 36 31.56 36 37 C35.34 37 34.68 37 34 37 C33.731875 36.195625 33.46375 35.39125 33.1875 34.5625 C32.5996875 33.2940625 32.5996875 33.2940625 32 32 C28.88370851 30.96123617 26.6405571 30.86638375 23.375 30.875 C22.39273438 30.87242187 21.41046875 30.86984375 20.3984375 30.8671875 C18.04774989 30.72994035 18.04774989 30.72994035 17 32 C16.71893515 36.30582826 16.76819256 40.62358947 16.75 44.9375 C16.729375 46.15630859 16.70875 47.37511719 16.6875 48.63085938 C16.68234375 49.79294922 16.6771875 50.95503906 16.671875 52.15234375 C16.6625293 53.22476318 16.65318359 54.29718262 16.64355469 55.40209961 C16.76118164 56.25940674 16.87880859 57.11671387 17 58 C17.99 58.66 18.98 59.32 20 60 C20 60.66 20 61.32 20 62 C13.4 62 6.8 62 0 62 C0.66 60.68 1.32 59.36 2 58 C2.32524685 55.37542681 2.32524685 55.37542681 2.31884766 52.49707031 C2.33871735 51.39623108 2.35858704 50.29539185 2.37905884 49.16119385 C2.39061005 47.97878113 2.40216125 46.79636841 2.4140625 45.578125 C2.43342865 44.36300232 2.4527948 43.14787964 2.4727478 41.89593506 C2.53253806 38.01402816 2.57892746 34.1320916 2.625 30.25 C2.66318022 27.61847663 2.70223198 24.98696576 2.7421875 22.35546875 C2.83823929 15.90375669 2.92328865 9.45196943 3 3 C2.01 2.67 1.02 2.34 0 2 C0 1.34 0 0.68 0 0 Z " fill="#F37A0A" transform="translate(52,255)"/>
<path d="M0 0 C-0.27734375 1.90234375 -0.27734375 1.90234375 -1 4 C-4.06494084 5.3442723 -6.76956146 6.20541633 -10 7 C-11.50046875 7.36931641 -11.50046875 7.36931641 -13.03125 7.74609375 C-17.33685149 8.66532062 -21.64376898 9.36837431 -26 10 C-26.95438965 10.13970215 -27.9087793 10.2794043 -28.89208984 10.42333984 C-48.70969609 13.14123563 -68.52882329 13.29490304 -88.5 13.3125 C-89.77734009 13.31599457 -91.05468018 13.31948914 -92.37072754 13.3230896 C-105.40869634 13.3428479 -118.40157463 13.15880774 -131.40625 12.16796875 C-132.86496521 12.0646801 -132.86496521 12.0646801 -134.35314941 11.95930481 C-139.83174873 11.48158996 -144.07860591 10.47466866 -149 8 C-149 7.01 -149 6.02 -149 5 C-144.92026553 3.64008851 -142.81296728 4.36422655 -139.0078125 6.16796875 C-114.83063734 16.18691488 -83.77214839 9.37702804 -60.25390625 1.42675781 C-41.28051635 -4.94288023 -19.11848921 -8.29039517 0 0 Z " fill="#BEBEBE" transform="translate(372,208)"/>
<path d="M0 0 C3.07978422 2.07706378 4.08133003 3.48315429 5.6875 6.8125 C6.11987305 10.1340332 6.11987305 10.1340332 6.19921875 13.86328125 C6.21716995 14.52208786 6.23512115 15.18089447 6.25361633 15.85966492 C6.30746656 17.94804631 6.34153108 20.0362026 6.375 22.125 C6.4081957 23.5475572 6.44268744 24.97008479 6.47851562 26.39257812 C6.56317601 29.86566915 6.6301077 33.33883913 6.6875 36.8125 C7.6775 37.3075 7.6775 37.3075 8.6875 37.8125 C8.6875 38.4725 8.6875 39.1325 8.6875 39.8125 C3.7375 39.8125 -1.2125 39.8125 -6.3125 39.8125 C-6.34988281 37.45351563 -6.38726563 35.09453125 -6.42578125 32.6640625 C-6.47197035 30.38369378 -6.52321324 28.10349095 -6.57495117 25.82324219 C-6.6082398 24.23643035 -6.63625947 22.64949897 -6.65893555 21.0625 C-6.69241078 18.78333516 -6.7447186 16.50526959 -6.80078125 14.2265625 C-6.80717117 13.51505035 -6.8135611 12.80353821 -6.82014465 12.07046509 C-6.85259648 9.8524544 -6.85259648 9.8524544 -7.3125 6.8125 C-10.57013222 4.64074519 -11.53689213 4.35206002 -15.3125 4.8125 C-17.54979768 5.86137782 -17.54979768 5.86137782 -19.3125 7.8125 C-19.89798675 10.74202388 -19.89798675 10.74202388 -19.7734375 14.08984375 C-19.76957031 15.32541016 -19.76570312 16.56097656 -19.76171875 17.83398438 C-19.73722656 19.12626953 -19.71273437 20.41855469 -19.6875 21.75 C-19.68556641 23.68262695 -19.68556641 23.68262695 -19.68359375 25.65429688 C-19.71579618 32.98871049 -19.71579618 32.98871049 -17.3125 39.8125 C-22.2625 39.8125 -27.2125 39.8125 -32.3125 39.8125 C-32.6425 27.6025 -32.9725 15.3925 -33.3125 2.8125 C-33.9725 2.4825 -34.6325 2.1525 -35.3125 1.8125 C-35.3125 1.1525 -35.3125 0.4925 -35.3125 -0.1875 C-30.3625 -0.1875 -25.4125 -0.1875 -20.3125 -0.1875 C-19.9825 1.1325 -19.6525 2.4525 -19.3125 3.8125 C-18.549375 3.173125 -17.78625 2.53375 -17 1.875 C-11.75682887 -2.148829 -6.02612937 -2.16031053 0 0 Z " fill="#F37C0E" transform="translate(666.3125,277.1875)"/>
<path d="M0 0 C3.01555805 3.62136212 5.49899563 7.38665591 8 11.375 C12.86169878 18.64852904 18.96073968 23.79384674 27.77734375 25.5546875 C33.39783521 25.84205097 36.58088394 24.57290235 41 21 C42.5947914 19.90291195 44.19955721 18.82022305 45.8125 17.75 C46.58207031 17.22921875 47.35164063 16.7084375 48.14453125 16.171875 C50 15 50 15 51 15 C52.21683951 20.93209261 53.0595553 27.02000071 51 32.8125 C47.6477567 36.47901611 43.29167889 37.99688077 38.8046875 39.9609375 C34.44946698 41.96980306 32.03898683 43.41227963 30 48 C26.38260377 46.46156712 24.00995857 44.27223365 21.1875 41.5625 C13.60015406 34.53604657 5.28198423 28.34579083 -3.44921875 22.8046875 C-4.29097656 22.20914063 -5.13273437 21.61359375 -6 21 C-6 20.34 -6 19.68 -6 19 C-4.35 19 -2.7 19 -1 19 C-1 17.68 -1 16.36 -1 15 C-1.99 15 -2.98 15 -4 15 C-3.69255859 14.00419922 -3.69255859 14.00419922 -3.37890625 12.98828125 C-3.10949219 12.10527344 -2.84007812 11.22226563 -2.5625 10.3125 C-2.29566406 9.44238281 -2.02882813 8.57226562 -1.75390625 7.67578125 C-1.03655471 5.12974079 -0.482459 2.5996577 0 0 Z " fill="#F9CF2A" transform="translate(321,120)"/>
<path d="M0 0 C-0.33 0.99 -0.66 1.98 -1 3 C-1.06665376 4.39439664 -1.08538199 5.79169875 -1.0625 7.1875 C-1.041875 8.445625 -1.02125 9.70375 -1 11 C4.22068712 12.93749103 9.27500755 13.65897401 14.78515625 14.29882812 C19.81805969 14.90902984 19.81805969 14.90902984 22 16 C22 16.66 22 17.32 22 18 C17.35855331 19.76054874 12.72224516 21.46527032 8 23 C8 23.66 8 24.32 8 25 C8.71027344 25.12117188 9.42054688 25.24234375 10.15234375 25.3671875 C11.07144531 25.53476563 11.99054688 25.70234375 12.9375 25.875 C14.31228516 26.11863281 14.31228516 26.11863281 15.71484375 26.3671875 C16.46894531 26.57601562 17.22304688 26.78484375 18 27 C18.495 27.99 18.495 27.99 19 29 C-17.20503268 30.18869914 -17.20503268 30.18869914 -32 20 C-34.625 17.1875 -34.625 17.1875 -36 15 C-30.88299433 9.89376697 -24.75198383 9.38332066 -17.92382812 8.109375 C-12.04621291 6.87907848 -8.15124808 5.14227911 -3.56958008 1.22021484 C-2 0 -2 0 0 0 Z " fill="#F27B08" transform="translate(257,176)"/>
<path d="M0 0 C4.95 0 9.9 0 15 0 C15 4.95 15 9.9 15 15 C18.63 15 22.26 15 26 15 C26 15.66 26 16.32 26 17 C21.05 17.495 21.05 17.495 16 18 C15.95061372 22.23582327 15.91428737 26.47149465 15.89013672 30.70751953 C15.88007037 32.14895547 15.8664162 33.59037095 15.84912109 35.03173828 C15.82489988 37.10193934 15.81352359 39.17187076 15.8046875 41.2421875 C15.78897705 43.11173096 15.78897705 43.11173096 15.77294922 45.01904297 C15.68347508 48.11771631 15.68347508 48.11771631 18 50 C20.68839385 50.26991906 23.29141936 50.08737357 26 50 C25.04020277 52.39949307 24.42925433 53.73612938 22.1953125 55.109375 C18.4855735 56.61439367 14.93198945 56.5656068 11 56 C7.1973971 53.9949912 5.38209159 52.57313738 3 49 C2.68115234 45.8137207 2.68115234 45.8137207 2.5859375 41.92578125 C2.56657135 41.2419487 2.5472052 40.55811615 2.5272522 39.8535614 C2.46756003 37.67333375 2.42111369 35.49305298 2.375 33.3125 C2.33681057 31.8326595 2.29775826 30.352841 2.2578125 28.87304688 C2.16186798 25.2488995 2.07779849 21.62458743 2 18 C1.34 17.67 0.68 17.34 0 17 C0 16.34 0 15.68 0 15 C0.99 15 1.98 15 3 15 C2.88652381 13.02013918 2.7589065 11.04108402 2.625 9.0625 C2.55539063 7.96035156 2.48578125 6.85820312 2.4140625 5.72265625 C2.27742187 4.82417969 2.14078125 3.92570312 2 3 C1.34 2.67 0.68 2.34 0 2 C0 1.34 0 0.68 0 0 Z " fill="#F37C0D" transform="translate(191,262)"/>
<path d="M0 0 C1.485 0.99 1.485 0.99 3 2 C6.36661485 3.08545769 9.76023608 4.0382124 13.1640625 5 C16 6 16 6 17 8 C16.10539062 8.15855469 15.21078125 8.31710938 14.2890625 8.48046875 C5.31217611 10.21268243 -1.89152468 12.68808328 -9.5546875 17.65625 C-15.03147642 21.18536626 -18.42921376 23.03749256 -25 22 C-27 20.9375 -27 20.9375 -28 19 C-28 16.66666667 -28 14.33333333 -28 12 C-28.99 11.34 -29.98 10.68 -31 10 C-30.73290484 6.17163599 -30.23114937 4.29058777 -27.8125 1.25 C-19.65135009 -5.27891993 -9.09078866 -4.05274423 0 0 Z " fill="#D60C35" transform="translate(405,54)"/>
<path d="M0 0 C2.17738415 1.56283274 4.04764534 3.15610949 6 5 C2.95338579 5.90141955 0.35191377 6.0741033 -2.81640625 5.95703125 C-16.17943447 5.38579021 -16.17943447 5.38579021 -28.87890625 9.02734375 C-34.23223307 11.48218422 -40.33927131 11.98331278 -45.875 9.9375 C-48 8 -48 8 -49.1875 4.75 C-48.96142794 0.22855874 -47.8907367 -1.34025551 -44.78515625 -4.48828125 C-32.04633638 -15.27585956 -12.49545665 -7.27537505 0 0 Z " fill="#F4AC0A" transform="translate(472,39)"/>
<path d="M0 0 C1.15886719 -0.01611328 2.31773437 -0.03222656 3.51171875 -0.04882812 C9.82448625 -0.05243542 14.56082174 0.23841318 20.125 3.3125 C16.88435869 5.10420072 13.69810384 6.000436 10.125 6.9375 C0.48207624 9.84121187 -6.98874841 15.51083192 -14.4296875 22.125 C-17.4362827 24.59528363 -20.13071912 25.23655297 -23.9375 25.625 C-27.3665242 25.26021019 -28.68839689 25.00370383 -30.875 22.3125 C-31.47557658 17.73310357 -31.36349717 15.37445038 -29.4375 11.1875 C-21.02534927 1.74947723 -12.1265867 -0.03349886 0 0 Z " fill="#479910" transform="translate(415.875,17.6875)"/>
<path d="M0 0 C0 4.62 0 9.24 0 14 C-1.32 14 -2.64 14 -4 14 C-4.66 11.69 -5.32 9.38 -6 7 C-8.90257134 6.1131032 -10.37501974 5.68985461 -13.14746094 7.06567383 C-15.82514567 9.86157474 -15.45731565 11.81867885 -15.390625 15.63671875 C-15.37773437 16.93544922 -15.36484375 18.23417969 -15.3515625 19.57226562 C-15.31814101 20.94402103 -15.28428123 22.31576581 -15.25 23.6875 C-15.22993376 25.07093812 -15.21168319 26.45440384 -15.1953125 27.83789062 C-15.14809207 31.22595649 -15.08224069 34.61263241 -15 38 C-14.34 38.33 -13.68 38.66 -13 39 C-13 39.66 -13 40.32 -13 41 C-17.95 41 -22.9 41 -28 41 C-28.33 28.79 -28.66 16.58 -29 4 C-29.66 3.67 -30.32 3.34 -31 3 C-31 2.34 -31 1.68 -31 1 C-26.05 1 -21.1 1 -16 1 C-16 2.32 -16 3.64 -16 5 C-15.5153125 4.6390625 -15.030625 4.278125 -14.53125 3.90625 C-9.39044589 0.34723177 -6.2293004 -0.55618754 0 0 Z " fill="#F37C0D" transform="translate(402,276)"/>
<path d="M0 0 C4.95 0 9.9 0 15 0 C15.63808594 1.50433594 16.27617188 3.00867188 16.93359375 4.55859375 C17.7681026 6.51828307 18.6027449 8.47791556 19.4375 10.4375 C20.06881836 11.92733398 20.06881836 11.92733398 20.71289062 13.44726562 C21.11572266 14.39150391 21.51855469 15.33574219 21.93359375 16.30859375 C22.30540771 17.18314209 22.67722168 18.05769043 23.06030273 18.95874023 C23.83373192 20.94927315 23.83373192 20.94927315 25 22 C27.97 14.74 30.94 7.48 34 0 C35.65 0 37.3 0 39 0 C38.73719238 0.48952148 38.47438477 0.97904297 38.20361328 1.48339844 C36.52012829 5.00335042 35.14640494 8.6267888 33.7421875 12.265625 C33.43427277 13.05902283 33.12635803 13.85242065 32.80911255 14.66986084 C31.82925569 17.19587304 30.85209359 19.72291781 29.875 22.25 C29.20981305 23.96621469 28.54445048 25.68236133 27.87890625 27.3984375 C26.25056768 31.59817227 24.62464458 35.79883493 23 40 C21.02 40 19.04 40 17 40 C16.59160889 38.95545654 16.18321777 37.91091309 15.76245117 36.8347168 C14.2439918 32.95706641 12.71523609 29.08354502 11.18334961 25.21118164 C10.52200648 23.53520618 9.86345412 21.85812666 9.20776367 20.17993164 C8.26433613 17.76672826 7.31091559 15.35768443 6.35546875 12.94921875 C6.0647197 12.19912033 5.77397064 11.44902191 5.47441101 10.67619324 C3.94613717 6.72369333 3.94613717 6.72369333 1.39839172 3.40290833 C0 2 0 2 0 0 Z " fill="#F37B0C" transform="translate(543,277)"/>
<path d="M0 0 C4.17806233 1.04451558 6.89045015 2.72546274 10.3125 5.1875 C10.91989014 5.62239746 11.52728027 6.05729492 12.15307617 6.50537109 C19.05833462 11.58564946 25.16123212 17.4820854 31.32714844 23.41699219 C34.30752208 26.23729906 37.42847635 28.89521017 40.55859375 31.546875 C42 33 42 33 42 35 C40.76115681 35.72767003 39.50831659 36.43154815 38.25 37.125 C37.55390625 37.51945312 36.8578125 37.91390625 36.140625 38.3203125 C34 39 34 39 32.08203125 38.4140625 C29.34067795 36.55220528 26.92431601 34.44177005 24.4375 32.25 C18.05069324 26.70497494 11.31256683 21.70956073 4.44897461 16.77246094 C0.69462687 14.05742606 -2.87124622 11.45095607 -6 8 C-4.02 5.36 -2.04 2.72 0 0 Z " fill="#FAAA29" transform="translate(315,144)"/>
<path d="M0 0 C8.9611888 -0.35897937 14.53067825 -0.30341173 21.875 5.125 C24.41966711 8.56778492 24.59074643 10.55439747 24.6640625 14.71875 C23.60864569 18.34441715 22.00235639 19.71518791 19 22 C15.61795102 23.13963488 12.20438274 23.73836579 8.6875 24.3125 C7.75615234 24.48072266 6.82480469 24.64894531 5.86523438 24.82226562 C3.57932651 25.23255678 1.2918269 25.62445255 -1 26 C-1 25.34 -1 24.68 -1 24 C-1.99 24.33 -2.98 24.66 -4 25 C-4.59359139 15.10681023 -3.39608234 8.67529881 3 1 C2.01 0.67 1.02 0.34 0 0 Z " fill="#F37E11" transform="translate(299,276)"/>
<path d="M0 0 C-0.845625 0.928125 -1.69125 1.85625 -2.5625 2.8125 C-8.53869804 9.85738287 -12.82997527 17.17256633 -16 25.8125 C-18.25876929 31.87626952 -20.29479929 35.6806105 -26 39 C-28.75 39.125 -28.75 39.125 -31 38 C-34.55287047 34.1359292 -34.62833493 30.96215352 -34.47265625 25.87890625 C-33.29359486 18.69735052 -27.93429736 13.20597485 -22.4765625 8.70703125 C-15.78507428 4.0947594 -8.33648577 -0.62080213 0 0 Z " fill="#293A50" transform="translate(359,65)"/>
<path d="M0 0 C3.68029717 1.4567843 4.48435448 2.88913467 6.23828125 6.30078125 C9.89092777 15.34810572 8.56324188 25.15802028 5.16796875 34.04296875 C4 36.1875 4 36.1875 1 38.1875 C-1.375 38.3125 -1.375 38.3125 -4 37.1875 C-9.80514717 30.2148372 -10.71484696 23.00820084 -10 14.1875 C-9.08747115 9.49737009 -7.8688748 5.47583161 -5.1875 1.5 C-3 0.1875 -3 0.1875 0 0 Z " fill="#FEFAF6" transform="translate(167,277.8125)"/>
<path d="M0 0 C3.47057978 1.37377116 4.52330834 2.93237497 6.23828125 6.203125 C9.67366287 15.15273454 8.75940018 25.51196113 5 34.1875 C3.125 36.875 3.125 36.875 1 38.1875 C-2.46292863 38.27407322 -3.67330253 37.49552905 -6.1875 35.125 C-10.66768525 27.86401011 -11.18799121 18.87598346 -9.46484375 10.625 C-7.84568201 5.24548996 -6.25896705 0.39118544 0 0 Z " fill="#FEFAF7" transform="translate(120,277.8125)"/>
<path d="M0 0 C8.90639696 4.05264624 15.79722456 10.5365758 23 17 C23.58378418 17.52062012 24.16756836 18.04124023 24.76904297 18.57763672 C34.53982572 27.30973858 34.53982572 27.30973858 37 31 C35.7636832 31.89422914 34.51028438 32.76487891 33.25 33.625 C32.55390625 34.11226562 31.8578125 34.59953125 31.140625 35.1015625 C29 36 29 36 27.12255859 35.28515625 C24.75589006 33.85219753 22.91532651 32.22942936 20.8984375 30.3359375 C16.09110158 25.97762763 10.97445065 22.28431125 5.625 18.625 C4.73683594 18.01011719 3.84867187 17.39523438 2.93359375 16.76171875 C-0.36194881 14.4832574 -3.66636666 12.22242223 -7 10 C-5.33248852 6.05860922 -2.77289351 3.2107188 0 0 Z " fill="#F9D12D" transform="translate(306,154)"/>
<path d="M0 0 C0.99 0.33 1.98 0.66 3 1 C4.11724858 4.03253186 4.33062918 6.17489002 3.1171875 9.203125 C-4.67453319 23.00560165 -15.90739496 31.70486058 -29 40 C-29.79583496 40.5161084 -30.59166992 41.0322168 -31.41162109 41.56396484 C-33.8475838 43.14260708 -36.29570674 44.70003799 -38.75 46.25 C-39.89384155 46.98585327 -39.89384155 46.98585327 -41.06079102 47.73657227 C-41.77807373 48.17928467 -42.49535645 48.62199707 -43.234375 49.078125 C-44.18135254 49.67222168 -44.18135254 49.67222168 -45.14746094 50.27832031 C-47.47238902 51.18402503 -48.68646965 50.81300043 -51 50 C-51 49.34 -51 48.68 -51 48 C-49.46296943 46.79276536 -47.86665431 45.66082023 -46.25 44.5625 C-41.80737762 41.42753896 -37.81813932 38.1130783 -33.875 34.375 C-30.57635571 31.25057802 -27.34036793 28.42091752 -23.4375 26.0625 C-13.65729536 19.89671881 -6.44739763 9.3847507 0 0 Z " fill="#358D1F" transform="translate(408,126)"/>
<path d="M0 0 C0.61319357 11.48034636 0.61319357 11.48034636 -1.4375 16.5625 C-7.82704923 22.6403639 -15.89085513 24.19451263 -24.4375 24.1875 C-25.23849121 24.18814453 -26.03948242 24.18878906 -26.86474609 24.18945312 C-33.3841781 24.13195563 -39.62446495 23.4001175 -46 22 C-45.67 20.35 -45.34 18.7 -45 17 C-44.67 17.66 -44.34 18.32 -44 19 C-28.5696599 16.89013717 -14.91301549 11.5730267 -3.00390625 1.609375 C-1 0 -1 0 0 0 Z " fill="#F4AB0D" transform="translate(375,96)"/>
<path d="M0 0 C-0.37249443 2.65903716 -0.72785789 3.76075419 -2.77734375 5.5625 C-3.49019531 6.036875 -4.20304687 6.51125 -4.9375 7 C-7.97941047 9.03162078 -9.75594607 10.50193437 -11 14 C-10.91083888 18.34166414 -10.91083888 18.34166414 -9 22 C-4.95647711 21.53343967 -0.98071164 20.84439338 3 20 C3 22.31 3 24.62 3 27 C2.67 27 2.34 27 2 27 C1.505 24.525 1.505 24.525 1 22 C0.071875 22.804375 -0.85625 23.60875 -1.8125 24.4375 C-5.62892977 27.74507247 -8.93699268 28.29312671 -14.00390625 28.21875 C-17.81111384 27.80152177 -20.0524124 25.8495613 -22.8125 23.375 C-24.63071106 19.73857787 -25.0121188 15.94859505 -24 12 C-20.2352452 7.17756359 -15.85097169 5.31551329 -10.3125 3.1875 C-9.54099609 2.87619141 -8.76949219 2.56488281 -7.97460938 2.24414062 C-2.32726648 0 -2.32726648 0 0 0 Z " fill="#F37C0E" transform="translate(353,290)"/>
<path d="M0 0 C0.495 0.99 0.495 0.99 1 2 C0.18015625 2.38671875 -0.6396875 2.7734375 -1.484375 3.171875 C-3.10085938 3.95304687 -3.10085938 3.95304687 -4.75 4.75 C-5.81734375 5.26046875 -6.8846875 5.7709375 -7.984375 6.296875 C-10.8735255 7.9285714 -12.71760386 9.63535535 -15 12 C-15.66 12 -16.32 12 -17 12 C-17.26296875 12.59296875 -17.5259375 13.1859375 -17.796875 13.796875 C-19.7583088 17.38859145 -22.57649523 19.80070068 -26 22 C-29.3125 22.5625 -29.3125 22.5625 -32 22 C-34 19 -34 19 -34 15.75 C-32.69184426 10.84441599 -31.00838945 8.12505918 -27 5 C-18.18003076 0.10959806 -9.93053455 -0.66997609 0 0 Z " fill="#D80D38" transform="translate(374,39)"/>
<path d="M0 0 C1.32 0.33 2.64 0.66 4 1 C3.67 1.66 3.34 2.32 3 3 C13.2993053 17.94124571 23.49616066 27.93110266 40 36 C37.25 37.625 37.25 37.625 34 39 C30.16434873 37.72414126 27.42570728 34.88367421 24.4375 32.25 C18.05069324 26.70497494 11.31256683 21.70956073 4.44897461 16.77246094 C0.69462687 14.05742606 -2.87124622 11.45095607 -6 8 C-4.02 5.36 -2.04 2.72 0 0 Z " fill="#F9D02E" transform="translate(315,144)"/>
<path d="M0 0 C5.30643041 -0.50537432 7.86680312 0.69344249 12 4 C14.62854826 6.54092998 14.96847757 7.75232373 15.4375 11.4375 C14.90882533 15.74242231 14.25476456 17.14215795 11 20 C4.98708468 22.93910321 -1.39577301 23.60016162 -8 24 C-8 22.68 -8 21.36 -8 20 C-7.06027344 19.51080078 -7.06027344 19.51080078 -6.1015625 19.01171875 C-5.28429687 18.57472656 -4.46703125 18.13773437 -3.625 17.6875 C-2.81289063 17.25824219 -2.00078125 16.82898438 -1.1640625 16.38671875 C1.26834043 15.03221276 1.26834043 15.03221276 3 12 C3.57852409 7.23753137 3.57852409 7.23753137 1.5 3.1875 C1.005 2.795625 0.51 2.40375 0 2 C0 1.34 0 0.68 0 0 Z " fill="#F37C0E" transform="translate(612,277)"/>
<path d="M0 0 C2.09965121 3.14947682 2.61355234 5.17281886 2.49609375 8.9453125 C1.5149891 13.00878529 -1.60060628 14.87911288 -5 17 C-8.27631587 18.80221149 -11.59653301 20.452347 -15 22 C-15.53102959 13.14950688 -15.17281013 6.74837015 -9.1875 -0.0625 C-5.84797594 -1.4937246 -3.45082188 -0.89465753 0 0 Z " fill="#FDF8F3" transform="translate(310,279)"/>
<path d="M0 0 C3 0.5 3 0.5 5.375 2.0625 C7.63326454 5.44989681 7.56116268 7.5017159 7 11.5 C4.06079256 17.23845261 -2.35487459 19.89248969 -8 22.5 C-8.66 22.5 -9.32 22.5 -10 22.5 C-10.39870308 14.33397025 -10.18363702 8.78144289 -5.1875 2.0625 C-3 0.5 -3 0.5 0 0 Z " fill="#FDF9F6" transform="translate(609,277.5)"/>
<path d="M0 0 C0 0.99 0 1.98 0 3 C1.60222896 4.58351361 1.60222896 4.58351361 3.76953125 6.0390625 C4.97174316 6.90337891 4.97174316 6.90337891 6.19824219 7.78515625 C7.06094727 8.39230469 7.92365234 8.99945313 8.8125 9.625 C10.56535739 10.88586145 12.31666748 12.14887681 14.06640625 13.4140625 C14.91734863 14.02797852 15.76829102 14.64189453 16.64501953 15.27441406 C21.2593356 18.65550321 25.63562704 22.30356586 30 26 C30.73089844 26.59683594 31.46179688 27.19367188 32.21484375 27.80859375 C33.84988246 29.15871483 35.43259373 30.57191873 37 32 C37 32.66 37 33.32 37 34 C35.28515625 34.7734375 35.28515625 34.7734375 33 35 C30.80859375 33.2265625 30.80859375 33.2265625 28.4375 30.625 C23.30720839 25.23103702 17.82419656 20.61947687 12 16 C11.10667969 15.26265625 10.21335937 14.5253125 9.29296875 13.765625 C5.03356527 10.26614508 1.09629525 7.14580852 -4 5 C-5.00593243 6.1196986 -6.0045849 7.2459412 -7 8.375 C-7.556875 9.00148437 -8.11375 9.62796875 -8.6875 10.2734375 C-10.20172487 11.90389833 -10.20172487 11.90389833 -10 14 C-8.29946359 15.25731149 -6.53564319 16.42930336 -4.75 17.5625 C4.29942388 23.44943337 12.91658129 29.8351516 21 37 C20.01 37.33 19.02 37.66 18 38 C17.52175781 37.51273438 17.04351562 37.02546875 16.55078125 36.5234375 C9.66212965 29.91129373 2.02085544 24.87269855 -6.0378418 19.78662109 C-6.93543213 19.20992676 -7.83302246 18.63323242 -8.7578125 18.0390625 C-9.5739502 17.52553223 -10.39008789 17.01200195 -11.23095703 16.48291016 C-11.81474121 15.9935498 -12.39852539 15.50418945 -13 15 C-13 11.51645795 -12.54964842 11.11572947 -10.3125 8.625 C-9.76722656 8.01785156 -9.22195313 7.41070312 -8.66015625 6.78515625 C-8.11230469 6.19605469 -7.56445312 5.60695312 -7 5 C-6.28650391 4.22462891 -6.28650391 4.22462891 -5.55859375 3.43359375 C-2.28151709 0 -2.28151709 0 0 0 Z " fill="#FDF9EA" transform="translate(310,150)"/>
<path d="M0 0 C10.19811094 1.69968516 19.44197027 5.86186081 27 13 C23.89895738 13.9137643 21.16428713 14.10527037 17.9375 14.0625 C16.49503906 14.05089844 16.49503906 14.05089844 15.0234375 14.0390625 C13.0078125 14.01302083 10.9921875 13.98697917 8.9765625 13.9609375 C7.53410156 13.94933594 7.53410156 13.94933594 6.0625 13.9375 C5.18722656 13.92589844 4.31195313 13.91429687 3.41015625 13.90234375 C1.12288337 13.99502093 -0.81092135 14.35495826 -3 15 C-2.34 14.154375 -1.68 13.30875 -1 12.4375 C1.26943101 8.53691546 1.42630658 6.43358847 1 2 C0.67 1.34 0.34 0.68 0 0 Z " fill="#F8D031" transform="translate(451,31)"/>
<path d="M0 0 C0.66 0 1.32 0 2 0 C2.13559675 2.56428515 2.23433188 5.12135216 2.3125 7.6875 C2.3753418 8.7693457 2.3753418 8.7693457 2.43945312 9.87304688 C2.53683218 14.13824957 2.38846696 15.53248094 -0.45703125 18.95703125 C-1.29621094 19.63121094 -2.13539063 20.30539062 -3 21 C-3.33 21.33 -3.66 21.66 -4 22 C-7.5 21.6875 -7.5 21.6875 -11 21 C-12.55024464 17.89951072 -12.28992015 15.42105782 -12 12 C-9.5988816 7.96612108 -6.34093184 5.6459659 -2.48828125 3.11328125 C-0.84010737 2.05383237 -0.84010737 2.05383237 0 0 Z " fill="#FEF6EF" transform="translate(524,291)"/>
<path d="M0 0 C0.33 0.66 0.66 1.32 1 2 C-0.59328125 2.12955078 -0.59328125 2.12955078 -2.21875 2.26171875 C-11.42894311 3.13245315 -18.22732651 4.22732651 -25 11 C-27.625 11.125 -27.625 11.125 -30 11 C-30.98373155 7.86994506 -31.1874467 6.43737563 -29.875 3.375 C-22.86124499 -5.50908969 -9.33990757 -4.63804066 0 0 Z " fill="#4B9813" transform="translate(405,54)"/>
<path d="M0 0 C0.10845031 2.56364483 0.18749744 5.12266279 0.25 7.6875 C0.30027344 8.7693457 0.30027344 8.7693457 0.3515625 9.87304688 C0.42162679 13.70906693 0.24320908 15.59465154 -1.78125 18.96875 C-4.72772597 21.666228 -7.08603197 21.77419415 -11 22 C-12.5625 20.4375 -12.5625 20.4375 -14 18 C-14 13.79660838 -13.57573559 11.69426939 -10.875 8.4375 C-9.92625 7.633125 -8.9775 6.82875 -8 6 C-7.38898438 5.45859375 -6.77796875 4.9171875 -6.1484375 4.359375 C-1.19830607 0 -1.19830607 0 0 0 Z " fill="#FEF9F4" transform="translate(355,291)"/>
<path d="M0 0 C0.66 0.66 1.32 1.32 2 2 C1.13375 2.9590625 1.13375 2.9590625 0.25 3.9375 C-2.09278829 7.12629517 -3.54885519 10.18879935 -5.0703125 13.81640625 C-5.96800266 15.92484659 -6.95514805 17.96115173 -8 20 C-8.845625 19.071875 -9.69125 18.14375 -10.5625 17.1875 C-13.76448358 13.95494855 -16.74514665 12.53174721 -21 11 C-15.92802633 5.25176317 -8.13342883 -1.62668577 0 0 Z " fill="#F4AB0D" transform="translate(404,79)"/>
<path d="M0 0 C4.18736668 -0.08760181 8.37449531 -0.14059435 12.5625 -0.1875 C13.74392578 -0.21263672 14.92535156 -0.23777344 16.14257812 -0.26367188 C22.55143598 -0.31752782 27.3583648 -0.15633335 33 3 C29.72782037 4.80206994 26.46977883 5.76251859 22.875 6.75 C16.58636993 8.62593033 11.41548271 11.33263022 6 15 C6.16113281 14.41476563 6.32226562 13.82953125 6.48828125 13.2265625 C7.20872683 10.09179928 7.17790103 7.20221862 7 4 C4.64046906 1.64046906 3.22104383 1.50858587 0 1 C0 0.67 0 0.34 0 0 Z " fill="#88C63C" transform="translate(403,18)"/>
<path d="M0 0 C0.99 0.33 1.98 0.66 3 1 C3 1.66 3 2.32 3 3 C1.35 3.66 -0.3 4.32 -2 5 C-2.03867187 6.41152344 -2.03867187 6.41152344 -2.078125 7.8515625 C-2.48017022 16.67828263 -2.86122209 21.08493982 -9.3125 27.1875 C-19.92772773 34.34660708 -31.47716253 33.67350971 -43.5 31.5 C-44.73363281 31.28537109 -44.73363281 31.28537109 -45.9921875 31.06640625 C-47.99584627 30.71693088 -49.99808298 30.35931844 -52 30 C-51.34 29.34 -50.68 28.68 -50 28 C-48.25 28.0234375 -48.25 28.0234375 -46 28.375 C-34.80008543 29.69359459 -21.98763358 31.18181952 -12 25 C-9.61994687 23.0262974 -8.36176358 21.72352716 -7 19 C-6.80046939 15.46165718 -6.68144896 11.92510711 -6.57421875 8.3828125 C-5.918728 4.52121396 -5.04448161 3.36475682 -2 1 C-1.34 0.67 -0.68 0.34 0 0 Z " fill="#FDF5E5" transform="translate(381,90)"/>
<path d="M0 0 C2.96402325 1.08022181 5.28898604 2.35212877 8 4 C8 4.33 8 4.66 8 5 C7.33355469 5.01417969 6.66710937 5.02835937 5.98046875 5.04296875 C-0.72639057 5.39003699 -5.5833291 6.84651513 -11.4921875 10.0390625 C-14.45052031 11.17262928 -16.00652387 10.89053233 -19 10 C-19.8125 7.8125 -19.8125 7.8125 -20 5 C-13.956602 -2.18674357 -8.83658824 -1.37846662 0 0 Z " fill="#0A7D7D" transform="translate(449,63)"/>
<path d="M0 0 C-0.845625 0.928125 -1.69125 1.85625 -2.5625 2.8125 C-7.99574595 9.16204159 -12.59112083 15.95859454 -15 24 C-15.33 24 -15.66 24 -16 24 C-16.03738281 23.38511719 -16.07476562 22.77023438 -16.11328125 22.13671875 C-16.21189453 20.92435547 -16.21189453 20.92435547 -16.3125 19.6875 C-16.37050781 18.88699219 -16.42851562 18.08648437 -16.48828125 17.26171875 C-17.09185863 14.59399886 -17.82862186 13.62853361 -20 12 C-22.62570704 11.74930087 -22.62570704 11.74930087 -25 12 C-21.42087791 8.08258659 -17.85076887 5.52236093 -13.0625 3.1875 C-12.46759766 2.87619141 -11.87269531 2.56488281 -11.25976562 2.24414062 C-7.34839495 0.29914209 -4.34757961 -0.33851383 0 0 Z " fill="#667B91" transform="translate(359,65)"/>
<path d="M0 0 C4.96392864 1.84819597 9.02044042 3.53066063 12 8 C11.08476562 7.98839844 10.16953125 7.97679688 9.2265625 7.96484375 C8.03804688 7.95582031 6.84953125 7.94679688 5.625 7.9375 C4.44164062 7.92589844 3.25828125 7.91429688 2.0390625 7.90234375 C-0.91921521 7.78533407 -0.91921521 7.78533407 -3 9 C-4.49649362 9.12005453 -5.99874793 9.17531451 -7.5 9.1875 C-8.2940625 9.20167969 -9.088125 9.21585938 -9.90625 9.23046875 C-12 9 -12 9 -14 7 C-13.83286119 4.4093485 -13.18799218 3.21932421 -11.5 1.25 C-7.62078103 -0.68960948 -4.24804199 -0.71788617 0 0 Z " fill="#4B9B14" transform="translate(483,60)"/>
<path d="M0 0 C6.34161734 0.05114208 12.40841541 1.93066343 18.25 4.3125 C18.58 4.9725 18.91 5.6325 19.25 6.3125 C17.89068359 6.56773438 17.89068359 6.56773438 16.50390625 6.828125 C9.23539193 8.27413631 2.88139564 9.99680218 -3.75 13.3125 C-3.42 9.6825 -3.09 6.0525 -2.75 2.3125 C-3.41 1.9825 -4.07 1.6525 -4.75 1.3125 C-3.75 0.3125 -3.75 0.3125 0 0 Z " fill="#F66193" transform="translate(402.75,55.6875)"/>
<path d="M0 0 C4.10958767 1.45044271 7.43258745 3.51110752 11 6 C10.67 6.78375 10.34 7.5675 10 8.375 C8.88133489 10.84332497 8.88133489 10.84332497 9 13 C-0.22551253 18.55580866 -0.22551253 18.55580866 -6 19 C-6.99 15.7 -7.98 12.4 -9 9 C-5.58203125 10.953125 -5.58203125 10.953125 -2.1640625 12.90625 C-0.10663126 14.15035859 -0.10663126 14.15035859 2 14 C1.43393721 9.30976546 0.81462495 4.65499974 0 0 Z " fill="#43446E" transform="translate(288,153)"/>
<path d="M0 0 C-0.46671627 5.41390868 -1.24297811 9.20517932 -4 14 C-9.36095277 12.41078475 -14.70843973 10.81027062 -20 9 C-19.47535156 8.74476563 -18.95070313 8.48953125 -18.41015625 8.2265625 C-14.20980396 6.088944 -10.11457695 3.75158082 -5.99609375 1.4609375 C-3 0 -3 0 0 0 Z " fill="#47456B" transform="translate(321,120)"/>
<path d="M0 0 C16.52331476 7.68984816 30.51560293 22.04841135 43 35 C42.505 35.99 42.505 35.99 42 37 C41.54786133 36.56768066 41.09572266 36.13536133 40.62988281 35.68994141 C23.21623119 17.98176638 23.21623119 17.98176638 3 4 C-0.8211168 4.34864204 -2.4809391 6.21103972 -5 9 C-3.7508258 5.54074837 -2.32472205 2.85306797 0 0 Z " fill="#FBF5DD" transform="translate(315,141)"/>
<path d="M0 0 C0.74507812 0.00451172 1.49015625 0.00902344 2.2578125 0.01367188 C4.0885764 0.02540754 5.91929873 0.0433415 7.75 0.0625 C5.42548857 2.38701143 4.47342214 2.42884586 1.3125 2.9375 C-2.25537796 3.67072875 -2.25537796 3.67072875 -5.1875 5.75 C-6.57807341 8.77654214 -7.4433398 11.83585919 -8.25 15.0625 C-9.57 15.0625 -10.89 15.0625 -12.25 15.0625 C-12.25 10.4425 -12.25 5.8225 -12.25 1.0625 C-8.06269376 0.01567344 -4.27143069 -0.04905353 0 0 Z " fill="#F4831C" transform="translate(515.25,275.9375)"/>
<path d="M0 0 C1.89492188 0.01353516 1.89492188 0.01353516 3.828125 0.02734375 C4.79234375 0.03894531 5.7565625 0.05054688 6.75 0.0625 C7.08 0.7225 7.41 1.3825 7.75 2.0625 C6.53763672 2.64257812 6.53763672 2.64257812 5.30078125 3.234375 C4.23214844 3.75515625 3.16351563 4.2759375 2.0625 4.8125 C1.00675781 5.32296875 -0.04898437 5.8334375 -1.13671875 6.359375 C-4.15003083 8.00781172 -6.64287648 9.83749662 -9.25 12.0625 C-9.58 9.4225 -9.91 6.7825 -10.25 4.0625 C-11.24 3.7325 -12.23 3.4025 -13.25 3.0625 C-9.46545136 -0.72204864 -5.14534429 -0.04764208 0 0 Z " fill="#F76C9B" transform="translate(367.25,38.9375)"/>
<path d="M0 0 C0.66 0.33 1.32 0.66 2 1 C1.24203125 1.93972656 1.24203125 1.93972656 0.46875 2.8984375 C-0.1809375 3.71570313 -0.830625 4.53296875 -1.5 5.375 C-2.1496875 6.18710938 -2.799375 6.99921875 -3.46875 7.8359375 C-5.19253615 9.83026843 -5.19253615 9.83026843 -5 12 C-3.29946359 13.25731149 -1.53564319 14.42930336 0.25 15.5625 C9.29942388 21.44943337 17.91658129 27.8351516 26 35 C25.01 35.33 24.02 35.66 23 36 C22.52175781 35.51273438 22.04351562 35.02546875 21.55078125 34.5234375 C14.66212965 27.91129373 7.02085544 22.87269855 -1.0378418 17.78662109 C-1.93543213 17.20992676 -2.83302246 16.63323242 -3.7578125 16.0390625 C-4.5739502 15.52553223 -5.39008789 15.01200195 -6.23095703 14.48291016 C-6.81474121 13.9935498 -7.39852539 13.50418945 -8 13 C-8 9.45086418 -7.43877595 9.02411922 -5.125 6.5 C-3.18980185 4.36847741 -1.60997764 2.41496646 0 0 Z " fill="#F7F4DC" transform="translate(305,152)"/>
<path d="M0 0 C5.50379729 0.48861182 8.8943867 1.42325509 13.14453125 5.01953125 C13.14453125 5.67953125 13.14453125 6.33953125 13.14453125 7.01953125 C10.68590724 7.07336973 8.22845575 7.11312163 5.76953125 7.14453125 C4.72152344 7.16966797 4.72152344 7.16966797 3.65234375 7.1953125 C1.81555639 7.21297392 -0.02148838 7.12256386 -1.85546875 7.01953125 C-2.51546875 6.35953125 -3.17546875 5.69953125 -3.85546875 5.01953125 C-3.0998777 0.03263029 -3.0998777 0.03263029 0 0 Z " fill="#D80D37" transform="translate(489.85546875,29.98046875)"/>
<path d="M0 0 C2.1875 0.875 2.1875 0.875 3.1875 2.875 C0.65293163 4.22355894 -1.88874152 5.55375217 -4.4375 6.875 C-5.15035156 7.2565625 -5.86320312 7.638125 -6.59765625 8.03125 C-10.8518071 10.21686878 -13.9049454 11.37039983 -18.8125 10.875 C-18.8125 9.555 -18.8125 8.235 -18.8125 6.875 C-17.83410156 6.61976562 -17.83410156 6.61976562 -16.8359375 6.359375 C-10.82761617 4.72777516 -10.82761617 4.72777516 -5.5 1.625 C-2.8125 -0.125 -2.8125 -0.125 0 0 Z " fill="#F5CB2A" transform="translate(317.8125,117.125)"/>
<path d="M0 0 C1.65 0 3.3 0 5 0 C4.70561035 0.57073242 4.4112207 1.14146484 4.10791016 1.72949219 C3.04809992 3.9014259 2.14285315 6.07408443 1.2734375 8.328125 C0.9640625 9.12734375 0.6546875 9.9265625 0.3359375 10.75 C0.01882813 11.575 -0.29828125 12.4 -0.625 13.25 C-0.94984375 14.09046875 -1.2746875 14.9309375 -1.609375 15.796875 C-2.40800369 17.86391396 -3.20481676 19.93163369 -4 22 C-4.99 22 -5.98 22 -7 22 C-8 20 -8 20 -7.37915039 17.93701172 C-7.03875732 17.10959473 -6.69836426 16.28217773 -6.34765625 15.4296875 C-5.80141602 14.08583984 -5.80141602 14.08583984 -5.24414062 12.71484375 C-4.65922852 11.30912109 -4.65922852 11.30912109 -4.0625 9.875 C-3.67642578 8.93011719 -3.29035156 7.98523438 -2.89257812 7.01171875 C-1.93524154 4.67156265 -0.97080009 2.33459572 0 0 Z " fill="#F3831B" transform="translate(577,277)"/>
<path d="M0 0 C1.65 0 3.3 0 5 0 C4.70561035 0.57524414 4.4112207 1.15048828 4.10791016 1.74316406 C3.07785822 3.8414012 2.15821869 5.94657654 1.2734375 8.109375 C0.9640625 8.86347656 0.6546875 9.61757813 0.3359375 10.39453125 C0.01882813 11.17183594 -0.29828125 11.94914062 -0.625 12.75 C-0.94984375 13.54277344 -1.2746875 14.33554687 -1.609375 15.15234375 C-2.40762042 17.10100169 -3.20399484 19.05042587 -4 21 C-4.99 21 -5.98 21 -7 21 C-8 19 -8 19 -7.37915039 17.02880859 C-7.03875732 16.24328613 -6.69836426 15.45776367 -6.34765625 14.6484375 C-5.98349609 13.79765625 -5.61933594 12.946875 -5.24414062 12.0703125 C-4.65922852 10.73613281 -4.65922852 10.73613281 -4.0625 9.375 C-3.48338867 8.02921875 -3.48338867 8.02921875 -2.89257812 6.65625 C-1.93529275 4.43440246 -0.97085723 2.21594292 0 0 Z " fill="#F3831C" transform="translate(274,277)"/>
<path d="M0 0 C4.60853797 0.72008406 8.67237409 2.31295939 13 4 C12.5139707 8.37426366 11.1638148 10.03866935 8 13 C6.66388095 11.0226631 5.33100742 9.04327287 4 7.0625 C3.6184375 6.49853516 3.236875 5.93457031 2.84375 5.35351562 C0 1.11328125 0 1.11328125 0 0 Z " fill="#424470" transform="translate(302,134)"/>
<path d="M0 0 C6.7540791 -0.3807101 12.84056601 -0.05867109 19 3 C19.33 3.66 19.66 4.32 20 5 C14.91913204 5.84681133 10.15171623 6.09038099 5 6 C4.731875 5.38125 4.46375 4.7625 4.1875 4.125 C3.04443152 1.7004767 3.04443152 1.7004767 0 0 Z " fill="#92C448" transform="translate(386,51)"/>
<path d="M0 0 C4.41811165 0.94531668 8.00020655 2.93344005 12 5 C10.02 7.31 8.04 9.62 6 12 C4.28982274 9.4347341 3.09582189 7.12039035 1.875 4.3125 C1.52179688 3.50425781 1.16859375 2.69601563 0.8046875 1.86328125 C0.53914063 1.24839844 0.27359375 0.63351563 0 0 Z " fill="#3F4973" transform="translate(296,145)"/>
<path d="M0 0 C0.99 0.33 1.98 0.66 3 1 C3 1.66 3 2.32 3 3 C1.35 3.66 -0.3 4.32 -2 5 C-2.33 9.62 -2.66 14.24 -3 19 C-3.99 19 -4.98 19 -6 19 C-6.10823773 16.75106046 -6.18569645 14.50062425 -6.25 12.25 C-6.29640625 10.99703125 -6.3428125 9.7440625 -6.390625 8.453125 C-6 5 -6 5 -4.109375 2.609375 C-2 1 -2 1 0 0 Z " fill="#FCEDCF" transform="translate(381,90)"/>
<path d="M0 0 C5.32938809 0.33671515 9.62826633 0.615432 14 4 C14 4.33 14 4.66 14 5 C13.24074219 5.06058594 12.48148437 5.12117188 11.69921875 5.18359375 C10.70535156 5.26738281 9.71148437 5.35117188 8.6875 5.4375 C7.70136719 5.51871094 6.71523438 5.59992188 5.69921875 5.68359375 C2.90624401 5.91812559 2.90624401 5.91812559 0 7 C0 4.69 0 2.38 0 0 Z " fill="#20B7B3" transform="translate(443,63)"/>
<path d="M0 0 C4.49797113 1.68673918 8.72886302 3.81673892 13 6 C12.67 6.66 12.34 7.32 12 8 C10.41532272 7.71572583 8.8322943 7.42225182 7.25 7.125 C6.36828125 6.96257812 5.4865625 6.80015625 4.578125 6.6328125 C2.13052256 6.03203736 0.19400143 5.22002883 -2 4 C-1.34 2.68 -0.68 1.36 0 0 Z " fill="#515171" transform="translate(265,166)"/>
<path d="M0 0 C2.93018139 0.2451452 5.85825112 0.49656415 8.78515625 0.77856445 C9.80867188 0.8578418 10.8321875 0.93711914 11.88671875 1.01879883 C12.86382812 1.10838867 13.8409375 1.19797852 14.84765625 1.2902832 C16.19537109 1.41149536 16.19537109 1.41149536 17.5703125 1.53515625 C19.78515625 2.09106445 19.78515625 2.09106445 21.78515625 5.09106445 C15.7577373 5.25695672 10.21020832 4.66220579 4.28515625 3.59106445 C3.46273438 3.44797852 2.6403125 3.30489258 1.79296875 3.1574707 C-0.21069002 2.80799534 -2.21292673 2.45038289 -4.21484375 2.09106445 C-2.21484375 0.09106445 -2.21484375 0.09106445 0 0 Z " fill="#FDF0D9" transform="translate(333.21484375,117.908935546875)"/>
<path d="M0 0 C3.70200542 1.27963659 6.04092005 2.67677014 8.76953125 5.4765625 C9.43017578 6.146875 10.09082031 6.8171875 10.77148438 7.5078125 C11.44501953 8.20648438 12.11855469 8.90515625 12.8125 9.625 C13.50537109 10.33140625 14.19824219 11.0378125 14.91210938 11.765625 C16.61506879 13.50381806 18.31061192 15.24863061 20 17 C19.67 17.66 19.34 18.32 19 19 C16.20377171 16.40069548 13.41382835 13.79474065 10.625 11.1875 C9.8309375 10.44951172 9.036875 9.71152344 8.21875 8.95117188 C7.45820313 8.23896484 6.69765625 7.52675781 5.9140625 6.79296875 C5.2123291 6.1383667 4.5105957 5.48376465 3.78759766 4.80932617 C2 3 2 3 0 0 Z " fill="#FEF9EB" transform="translate(338,159)"/>
<path d="M0 0 C4.99275057 1.27721526 7.57611908 3.17330957 11 7 C7.04 6.67 3.08 6.34 -1 6 C-0.67 4.02 -0.34 2.04 0 0 Z " fill="#89C63F" transform="translate(484,61)"/>
<path d="M0 0 C3.465 1.98 3.465 1.98 7 4 C7 4.66 7 5.32 7 6 C2.05 6 -2.9 6 -8 6 C-8 5.67 -8 5.34 -8 5 C-4.535 4.505 -4.535 4.505 -1 4 C-0.67 2.68 -0.34 1.36 0 0 Z " fill="#F5759D" transform="translate(496,31)"/>
<path d="M0 0 C4.66666667 4 9.33333333 8 14 12 C13.01 12.33 12.02 12.66 11 13 C9.16052663 11.21427748 7.32842259 9.42197551 5.5 7.625 C4.71302734 6.86316406 4.71302734 6.86316406 3.91015625 6.0859375 C2.56846819 4.76167396 1.28004185 3.38394135 0 2 C0 1.34 0 0.68 0 0 Z " fill="#FACE3B" transform="translate(340,162)"/>
<path d="M0 0 C2.56616632 3.84924948 2.55097676 6.4349304 3 11 C1.02 10.01 -0.96 9.02 -3 8 C-2.34 7.01 -1.68 6.02 -1 5 C-0.61500109 3.34450469 -0.27206865 1.6777567 0 0 Z " fill="#3D4973" transform="translate(281,148)"/>
<path d="M0 0 C3.875 4.75 3.875 4.75 5 7 C0.25 6.125 0.25 6.125 -2 5 C-1.34 3.35 -0.68 1.7 0 0 Z " fill="#3E4973" transform="translate(296,134)"/>
<path d="M0 0 C-2 2 -2 2 -4.8203125 2.1953125 C-5.91085937 2.17210938 -7.00140625 2.14890625 -8.125 2.125 C-9.22070312 2.10695313 -10.31640625 2.08890625 -11.4453125 2.0703125 C-12.28835938 2.04710938 -13.13140625 2.02390625 -14 2 C-14 1.67 -14 1.34 -14 1 C-12.23103898 0.63659714 -10.45973374 0.28459117 -8.6875 -0.0625 C-7.70136719 -0.25972656 -6.71523438 -0.45695312 -5.69921875 -0.66015625 C-3 -1 -3 -1 0 0 Z " fill="#FEFDFB" transform="translate(362,120)"/>
<path d="M0 0 C3.94139078 1.66751148 6.7892812 4.22710649 10 7 C9.01 7.33 8.02 7.66 7 8 C5.17578125 6.85546875 5.17578125 6.85546875 3.3125 5.1875 C2.37857422 4.37345703 2.37857422 4.37345703 1.42578125 3.54296875 C0 2 0 2 0 0 Z " fill="#ECEFD0" transform="translate(321,180)"/>
<path d="M0 0 C2.15377564 2.62198774 3.40072174 4.64404172 4 8 C2.02 7.01 0.04 6.02 -2 5 C-1.34 3.35 -0.68 1.7 0 0 Z " fill="#454870" transform="translate(289,142)"/>
</svg>
